<svg xmlns="http://www.w3.org/2000/svg" width="315" height="50" viewBox="0 0 315 50" role="image" aria-labelledby="header-logo">
    <title id="header-logo">La Ponctuelle</title>
    <g fill="#FFF" fill-rule="evenodd">
        <path d="M2 50L16 49.958 2 31zM25 41.036L46 50 32.485 31zM64 31L64 43 82 42.938 82 31zM90 50L109 50 109 31.054 90.024 31zM116 50L127 40.461 116 31zM127 40.521L137 50 137 31zM144 31L144 50 167 50 156.368 31zM189 50L208 50 208 31 189 31zM215 31L215 50 239 50 229.335 31zM246 50L261 50 246 31zM269 50L283 50 269 31zM291 30L291 50 313 50 303.355 30zM0 0L0 26.224 1.302 27.534 17.737 27.534 18.866 26.875 31.86 4.01 44.709 28 47 26.755 33.039.689 30.764.66 16.981 24.912 2.604 24.912 2.604 0z"/>
        <path d="M30 27L34 27 34 24 30 24zM64 3v12l16-.066V3H64zm.645 24H62V1.288L63.322 0h18.355L83 1.288v14.896l-1.317 1.288-17.038.075V27zM91 25h16.976L108 3H91.023L91 25zm17.678 2H89.296L88 25.71l.025-24.423L89.322 0h19.382L110 1.29l-.026 24.423L108.678 27zM135.64 27L116.664 4.848 116.664 26.826 114 26.826 114 1.28 116.36.466 135.336 22.618 135.336 0 138 0 138 26.186zM168 27L143.322 27 142 25.712 142 1.288 143.322 0 157.203 0 157.203 2.576 144.644 2.576 144.644 24.423 168 24.423zM162 3L183 3 183 0 162 0z"/>
        <path d="M171 27L174 27 174 0 171 0zM206.691 27L188.309 27 187 25.712 187 0 189.618 0 189.618 24.423 205.381 24.423 205.381 0 208 0 208 25.712zM240 27L214.322 27 213 25.712 213 1.288 214.322 0 230.192 0 230.192 2.576 215.645 2.576 215.645 24.423 240 24.423z"/>
        <path d="M218 15L222 15 222 12 218 12zM289.322 0L288 1.288 288 25.712 289.322 27 315 27 315 24.423 290.645 24.423 290.645 2.577 305.192 2.577 305.192 0z"/>
        <path d="M294 15L298 15 298 12 294 12zM262 27L245.342 27 244 25.712 244 0 246.683 0 246.683 24.423 262 24.423zM284 27L267.367 27 266 25.712 266 0 268.734 0 268.734 24.423 284 24.423z"/>
    </g>
</svg>
