<?xml version="1.0" encoding="UTF-8"?>
<svg width="315px" height="50px" version="1.1" xmlns="http://www.w3.org/2000/svg" xmlns:xlink="http://www.w3.org/1999/xlink">
    <!-- Generator: Sketch 63.1 (92452) - https://sketch.com -->
    <title>header__logo--light</title>
    <desc>Created with Sketch.</desc>
    <g id="header__logo--light" stroke="none" stroke-width="1" fill="none" fill-rule="evenodd">
        <g id="m-la" transform="translate(2.000000, 31.000000)" fill="#FFFFFF">
            <polygon id="Fill-1" points="0 19 14 18.9583289 0 0"></polygon>
            <polygon id="Fill-2" points="23 10.0363002 44 19 30.4847705 0"></polygon>
        </g>
        <g id="m-ponctuelle" transform="translate(64.000000, 30.000000)" fill="#FFFFFF">
            <polygon id="Fill-3" points="0 1 0 13 18 12.9379075 18 1"></polygon>
            <polygon id="Fill-4" points="26 20 45 20 45 1.05385533 26.0239924 1"></polygon>
            <polygon id="Fill-5" points="52 20 63 10.4607074 52 1"></polygon>
            <polygon id="Fill-6" points="63 10.5210019 73 20 73 1"></polygon>
            <polygon id="Fill-7" points="80 1 80 20 103 20 92.3681986 1"></polygon>
            <polygon id="Fill-8" points="125 20 144 20 144 1 125 1"></polygon>
            <polygon id="Fill-9" points="151 1 151 20 175 20 165.335145 1"></polygon>
            <polygon id="Fill-10" points="182 20 197 20 182 1"></polygon>
            <polygon id="Fill-11" points="205 20 219 20 205 1"></polygon>
            <polygon id="Fill-12" points="227 0 227 20 249 20 239.355077 0"></polygon>
        </g>
        <g id="La" fill="#FFFFFF">
            <polygon id="Fill-13" points="0 0 0 26.2236753 1.30176809 27.5344691 17.7366406 27.5344691 18.8661574 26.8751723 31.8596344 4.01038032 44.7090979 28 47 26.7548896 33.0387692 0.688854353 30.7635997 0.659707357 16.981478 24.912471 2.60393958 24.912471 2.60393958 0"></polygon>
            <polygon id="Fill-14" points="30 27 34 27 34 24 30 24"></polygon>
        </g>
        <g id="ponctuelle" transform="translate(62.000000, -0.000000)" fill="#FFFFFF">
            <path d="M2,3 L2,15 L18,14.9336089 L18,3 L2,3 Z M2.64529164,27 L0,27 L0,1.28826877 L1.32244085,-4.97379915e-14 L19.6771492,-4.97379915e-14 L21,1.28826877 L21,16.1836244 L19.6832982,17.4718932 L2.64529164,17.5469144 L2.64529164,27 Z" id="Fill-15"></path>
            <path d="M29,25 L45.976438,25 L46,3 L29.0231558,3 L29,25 Z M46.6778547,27 L27.2964336,27 L26,25.7101179 L26.02531,1.28705875 L27.3217436,-4.97379915e-14 L46.7035664,-4.97379915e-14 L48,1.28988214 L47.9738865,25.7129412 L46.6778547,27 Z" id="Fill-16"></path>
            <polygon id="Fill-17" points="73.6397434 27 54.664007 4.84832203 54.664007 26.8264735 52 26.8264735 52 1.28000831 54.3598439 0.466477669 73.3364057 22.6181556 73.3364057 1.98951966e-13 76 1.98951966e-13 76 26.1864694"></polygon>
            <polygon id="Fill-18" points="106 27 81.3224088 27 80 25.711712 80 1.28788467 81.3224088 1.98951966e-13 95.2031954 1.98951966e-13 95.2031954 2.57617269 82.6439984 2.57617269 82.6439984 24.423424 106 24.423424"></polygon>
            <polygon id="Fill-19" points="100 3 121 3 121 1.98951966e-13 100 1.98951966e-13"></polygon>
            <polygon id="Fill-20" points="109 27 112 27 112 1.98951966e-13 109 1.98951966e-13"></polygon>
            <polygon id="Fill-21" points="144.690948 27 126.309458 27 125 25.711712 125 1.98951966e-13 127.618104 1.98951966e-13 127.618104 24.423424 143.38149 24.423424 143.38149 1.98951966e-13 146 1.98951966e-13 146 25.711712"></polygon>
            <polygon id="Fill-22" points="178 27 152.322461 27 151 25.711712 151 1.28788467 152.322461 1.98951966e-13 168.191989 1.98951966e-13 168.191989 2.57617269 153.644921 2.57617269 153.644921 24.423424 178 24.423424"></polygon>
            <polygon id="Fill-23" points="156 15 160 15 160 12 156 12"></polygon>
            <polygon id="Fill-24" points="227.322441 1.98951966e-13 226 1.28828802 226 25.711712 227.322441 27 253 27 253 24.423424 228.645291 24.423424 228.645291 2.57657604 243.192138 2.57657604 243.192138 1.98951966e-13"></polygon>
            <polygon id="Fill-25" points="232 15 236 15 236 12 232 12"></polygon>
            <polygon id="Fill-26" points="200 27 183.341987 27 182 25.711712 182 1.98951966e-13 184.683142 1.98951966e-13 184.683142 24.423424 200 24.423424"></polygon>
            <polygon id="Fill-27" points="222 27 205.366692 27 204 25.711712 204 1.98951966e-13 206.734231 1.98951966e-13 206.734231 24.423424 222 24.423424"></polygon>
        </g>
    </g>
</svg>